<?xml version="1.0" encoding="iso-8859-1"?>
<!-- Generator: Adobe Illustrator 19.0.0, SVG Export Plug-In . SVG Version: 6.00 Build 0)  -->
<svg version="1.1" id="Layer_1" xmlns="http://www.w3.org/2000/svg" xmlns:xlink="http://www.w3.org/1999/xlink" x="0px" y="0px"
	 viewBox="0 0 512 512" style="enable-background:new 0 0 512 512;" xml:space="preserve">
<g>
	<g>
		<path d="M0,0v163.556h512V0H0z M340.113,112.557c-5.373,5.373-12.516,8.331-20.113,8.331c-7.597,0-14.74-2.958-20.113-8.331
			c-5.373-5.373-8.331-12.517-8.331-20.116s2.96-14.741,8.334-20.115C305.26,66.958,312.403,64,320,64
			c7.598,0,14.74,2.958,20.113,8.331c5.37,5.365,8.331,12.51,8.331,20.112C348.444,100.042,345.485,107.184,340.113,112.557z
			 M439.669,112.557c-5.373,5.373-12.516,8.331-20.113,8.331c-7.597,0-14.74-2.958-20.113-8.331
			c-5.373-5.373-8.331-12.517-8.331-20.116s2.96-14.741,8.334-20.115c5.37-5.369,12.513-8.327,20.11-8.327
			c7.598,0,14.74,2.958,20.113,8.331c5.37,5.365,8.331,12.51,8.331,20.112C448,100.042,445.04,107.184,439.669,112.557z"/>
	</g>
</g>
<g>
	<g>
		<polygon points="93.867,206.222 93.867,355.556 51.2,355.556 51.2,206.222 0,206.222 0,512 149.333,512 149.333,206.222 		"/>
	</g>
</g>
<g>
	<g>
		<polygon points="459.378,206.222 459.378,355.556 416.711,355.556 416.711,206.222 362.667,206.222 362.667,512 512,512 
			512,206.222 		"/>
	</g>
</g>
<g>
	<g>
		<polygon points="277.333,206.222 277.333,355.556 234.667,355.556 234.667,206.222 192,206.222 192,512 320,512 320,206.222 		"/>
	</g>
</g>
<g>
</g>
<g>
</g>
<g>
</g>
<g>
</g>
<g>
</g>
<g>
</g>
<g>
</g>
<g>
</g>
<g>
</g>
<g>
</g>
<g>
</g>
<g>
</g>
<g>
</g>
<g>
</g>
<g>
</g>
</svg>
